<svg xmlns="http://www.w3.org/2000/svg" width="224" height="224" viewBox="0 0 224 224" fill="none"><path fill-rule="evenodd" clip-rule="evenodd" d="M17.7135 120.361C35.595 112.584 38.283 102.644 37.898 96.131C37.8455 88.5185 31.591 82.3025 23.9015 82.3025C16.933 82.3025 11.1475 87.4055 10.0765 94.073C9.772 95.9805 11.0705 97.7795 12.978 98.084C14.8855 98.392 16.6845 97.09 16.989 95.1825C17.5245 91.8505 20.419 89.3025 23.9015 89.3025C27.7655 89.3025 30.9015 92.4385 30.9015 96.3025C30.9015 96.3725 30.905 96.446 30.9085 96.516C31.206 101.395 28.35 108.101 14.924 113.942C13.1495 114.712 12.3375 116.777 13.1075 118.548C13.881 120.319 15.9425 121.131 17.7135 120.361Z" fill="url(#paint0_linear_3236_2853)"></path><path fill-rule="evenodd" clip-rule="evenodd" d="M17.5805 120.414C44.1701 110.128 60.0146 100.055 89.8661 99.652C91.7981 99.624 93.3451 98.035 93.3171 96.103C93.2926 94.1745 91.7036 92.6275 89.7716 92.652C58.9401 93.0685 42.5146 103.261 15.057 113.887C13.2545 114.583 12.3585 116.613 13.055 118.416C13.7515 120.215 15.7815 121.114 17.5805 120.414Z" fill="url(#paint1_linear_3236_2853)"></path><path fill-rule="evenodd" clip-rule="evenodd" d="M18.3015 141.036C47.0365 121.303 63.2905 114.324 121.359 113.652C184.048 112.924 193.477 81.249 192.945 68.222C192.906 55.7165 182.728 45.563 170.198 45.563C157.64 45.563 147.448 55.7585 147.448 68.313C147.448 76.93 152.247 84.4375 159.32 88.2945C161.014 89.222 163.142 88.5955 164.07 86.898C164.994 85.204 164.367 83.076 162.673 82.152C157.777 79.478 154.448 74.2805 154.448 68.313C154.448 59.619 161.504 52.563 170.198 52.563C178.889 52.563 185.948 59.619 185.948 68.313C185.948 68.362 185.948 68.4145 185.952 68.4635C186.449 79.968 176.876 106.008 121.279 106.652C60.9945 107.352 44.17 114.779 14.336 135.268C12.7435 136.36 12.341 138.54 13.433 140.133C14.5285 141.725 16.709 142.131 18.3015 141.036Z" fill="url(#paint2_linear_3236_2853)"></path><path fill-rule="evenodd" clip-rule="evenodd" d="M81.4277 140.945C91.0072 133.714 110.194 132.255 123.977 137.183C132.384 140.189 138.873 145.642 138.842 154.273V154.287C138.842 160.083 134.134 164.787 128.342 164.787C122.546 164.787 117.842 160.083 117.842 154.287C117.842 153.237 117.996 152.222 118.283 151.267C118.839 149.415 117.786 147.462 115.938 146.906C114.086 146.349 112.133 147.399 111.577 149.251C111.097 150.847 110.842 152.537 110.842 154.287C110.842 163.947 118.682 171.787 128.342 171.787C137.998 171.787 145.838 163.951 145.842 154.294C145.884 142.597 137.729 134.666 126.333 130.592C110.408 124.898 88.2772 127.001 77.2102 135.359C75.6667 136.521 75.3622 138.719 76.5242 140.259C77.6897 141.803 79.8877 142.107 81.4277 140.945Z" fill="url(#paint3_linear_3236_2853)"></path><path fill-rule="evenodd" clip-rule="evenodd" d="M152.999 124.149C168.298 123.351 185.434 129.108 191.804 139.927C192.784 141.593 194.929 142.149 196.595 141.169C198.258 140.189 198.814 138.04 197.834 136.378C190.369 123.69 170.573 116.221 152.635 117.156C150.707 117.257 149.223 118.906 149.324 120.834C149.426 122.763 151.071 124.247 152.999 124.149Z" fill="url(#paint4_linear_3236_2853)"></path><path fill-rule="evenodd" clip-rule="evenodd" d="M47.0679 74.102C56.3954 74.592 69.8074 70.336 76.3524 65.7545C77.9344 64.6485 78.3229 62.4645 77.2134 60.8825C76.1039 59.3005 73.9199 58.912 72.3379 60.0215C66.7729 63.917 55.3664 67.529 47.4389 67.1125C45.5069 67.011 43.8584 68.495 43.7569 70.4235C43.6554 72.352 45.1394 74.0005 47.0679 74.102Z" fill="url(#paint5_linear_3236_2853)"></path><path fill-rule="evenodd" clip-rule="evenodd" d="M69.7272 65.6985C57.1342 54.11 63.2977 31.9165 88.1967 22.757C101.588 17.8325 108.892 12.8905 112.567 8.74647C113.201 7.67197 114.377 7.03847 115.623 7.09797C116.869 7.15747 117.978 7.90297 118.503 9.03347C131.691 40.3305 97.3247 91.1015 69.7272 65.6985Z" fill="url(#paint6_linear_3236_2853)"></path><path fill-rule="evenodd" clip-rule="evenodd" d="M118.734 9.59351C131.289 40.9255 97.1637 90.951 69.7272 65.6985C67.0147 63.203 65.1737 60.2175 64.2007 56.9765C87.5877 80.78 123.228 41.034 118.734 9.59351Z" fill="url(#paint7_linear_3236_2853)"></path><path fill-rule="evenodd" clip-rule="evenodd" d="M19.2955 190.715C24.6085 184.814 35.231 179.301 41.9195 178.122C43.82 177.786 45.094 175.966 44.758 174.065C44.422 172.161 42.6055 170.891 40.7015 171.227C32.837 172.616 20.3385 179.091 14.0945 186.032C12.7995 187.467 12.9185 189.682 14.3535 190.974C15.7885 192.265 18.004 192.15 19.2955 190.715Z" fill="url(#paint8_linear_3236_2853)"></path><path fill-rule="evenodd" clip-rule="evenodd" d="M36.0569 175.955C35.3464 193.049 55.3979 204.386 79.4814 193.256C92.4314 187.271 101.09 185.601 106.624 185.93C107.831 186.242 109.109 185.86 109.949 184.936C110.785 184.012 111.041 182.7 110.614 181.531C97.8109 150.076 37.6109 138.477 36.0569 175.955Z" fill="url(#paint9_linear_3236_2853)"></path><path fill-rule="evenodd" clip-rule="evenodd" d="M41.3594 161.014C38.2584 164.689 36.3194 169.62 36.0569 175.955C35.3464 193.049 55.3979 204.386 79.4814 193.256C92.4314 187.271 101.09 185.601 106.624 185.93C107.726 186.217 108.892 185.92 109.725 185.16C109.609 185.125 109.497 185.08 109.385 185.031C103.946 183.834 95.1299 184.275 81.4589 188.632C56.0349 196.735 37.7334 181.643 40.8169 163.628C40.9709 162.725 41.1529 161.854 41.3594 161.014Z" fill="url(#paint10_linear_3236_2853)"></path><path fill-rule="evenodd" clip-rule="evenodd" d="M152.152 166.372C158.371 167.132 166.264 170.765 171.724 174.604C173.302 175.717 175.49 175.336 176.599 173.757C177.712 172.179 177.331 169.991 175.752 168.882C169.414 164.423 160.216 160.303 152.995 159.425C151.081 159.19 149.334 160.559 149.1 162.477C148.865 164.395 150.234 166.141 152.152 166.372Z" fill="url(#paint11_linear_3236_2853)"></path><path fill-rule="evenodd" clip-rule="evenodd" d="M170.905 167.597C160.066 176.253 163.786 194.547 183.4 203.371C193.214 207.784 198.769 211.911 201.698 215.33C202.304 216.405 203.448 217.056 204.68 217.028C205.912 217.003 207.029 216.3 207.589 215.201C218.911 190.508 194.352 148.876 170.905 167.597Z" fill="url(#paint12_linear_3236_2853)"></path><path fill-rule="evenodd" clip-rule="evenodd" d="M165.676 175.105C162.715 184.376 168.423 196.633 183.4 203.371C193.214 207.784 198.768 211.911 201.698 215.33C202.303 216.405 203.448 217.056 204.68 217.028C205.296 217.017 205.88 216.835 206.384 216.517C205.768 216.132 205.285 215.547 205.023 214.84C202.195 210.206 196.028 204.172 184.047 197.071C173.722 190.949 167.734 182.889 165.676 175.105Z" fill="url(#paint13_linear_3236_2853)"></path><defs><linearGradient id="paint0_linear_3236_2853" x1="10.0345" y1="101.475" x2="93.3205" y2="101.475" gradientUnits="userSpaceOnUse"><stop stop-color="#559AFF"></stop><stop offset="1" stop-color="#2E69EF"></stop></linearGradient><linearGradient id="paint1_linear_3236_2853" x1="10.0345" y1="101.476" x2="93.3206" y2="101.476" gradientUnits="userSpaceOnUse"><stop stop-color="#559AFF"></stop><stop offset="1" stop-color="#2E69EF"></stop></linearGradient><linearGradient id="paint2_linear_3236_2853" x1="12.8205" y1="93.6075" x2="192.969" y2="93.6075" gradientUnits="userSpaceOnUse"><stop stop-color="#559AFF"></stop><stop offset="1" stop-color="#2E69EF"></stop></linearGradient><linearGradient id="paint3_linear_3236_2853" x1="75.8207" y1="149.59" x2="145.842" y2="149.59" gradientUnits="userSpaceOnUse"><stop stop-color="#559AFF"></stop><stop offset="1" stop-color="#2E69EF"></stop></linearGradient><linearGradient id="paint4_linear_3236_2853" x1="149.317" y1="129.364" x2="198.317" y2="129.364" gradientUnits="userSpaceOnUse"><stop stop-color="#559AFF"></stop><stop offset="1" stop-color="#2E69EF"></stop></linearGradient><linearGradient id="paint5_linear_3236_2853" x1="115.328" y1="9.59351" x2="49.7173" y2="76.419" gradientUnits="userSpaceOnUse"><stop stop-color="#CADCF0"></stop><stop offset="1" stop-color="#A4BBDB"></stop></linearGradient><linearGradient id="paint6_linear_3236_2853" x1="118.748" y1="9.69847" x2="66.6997" y2="22.771" gradientUnits="userSpaceOnUse"><stop stop-color="#E9F3FC"></stop><stop offset="1" stop-color="#CADCF0"></stop></linearGradient><linearGradient id="paint7_linear_3236_2853" x1="115.329" y1="9.59351" x2="49.7177" y2="76.419" gradientUnits="userSpaceOnUse"><stop stop-color="#CADCF0"></stop><stop offset="1" stop-color="#A4BBDB"></stop></linearGradient><linearGradient id="paint8_linear_3236_2853" x1="94.486" y1="176.76" x2="14.21" y2="189.966" gradientUnits="userSpaceOnUse"><stop stop-color="#CADCF0"></stop><stop offset="1" stop-color="#A4BBDB"></stop></linearGradient><linearGradient id="paint9_linear_3236_2853" x1="102.893" y1="169.043" x2="39.2979" y2="178.304" gradientUnits="userSpaceOnUse"><stop stop-color="#E9F3FC"></stop><stop offset="1" stop-color="#CADCF0"></stop></linearGradient><linearGradient id="paint10_linear_3236_2853" x1="94.4859" y1="176.76" x2="14.2099" y2="189.966" gradientUnits="userSpaceOnUse"><stop stop-color="#CADCF0"></stop><stop offset="1" stop-color="#A4BBDB"></stop></linearGradient><linearGradient id="paint11_linear_3236_2853" x1="167.814" y1="158.235" x2="157.78" y2="181.52" gradientUnits="userSpaceOnUse"><stop stop-color="#CADCF0"></stop><stop offset="1" stop-color="#A4BBDB"></stop></linearGradient><linearGradient id="paint12_linear_3236_2853" x1="204.866" y1="165.567" x2="169.358" y2="186.795" gradientUnits="userSpaceOnUse"><stop stop-color="#E9F3FC"></stop><stop offset="1" stop-color="#CADCF0"></stop></linearGradient><linearGradient id="paint13_linear_3236_2853" x1="167.814" y1="158.235" x2="157.78" y2="181.52" gradientUnits="userSpaceOnUse"><stop stop-color="#CADCF0"></stop><stop offset="1" stop-color="#A4BBDB"></stop></linearGradient></defs></svg>